<?xml version="1.0" standalone="no"?>
<!DOCTYPE svg PUBLIC "-//W3C//DTD SVG 20010904//EN"
 "http://www.w3.org/TR/2001/REC-SVG-20010904/DTD/svg10.dtd">
<svg version="1.0" xmlns="http://www.w3.org/2000/svg"
 width="460.000000pt" height="460.000000pt" viewBox="0 0 460.000000 460.000000"
 preserveAspectRatio="xMidYMid meet">
<metadata>
Created by potrace 1.10, written by Peter Selinger 2001-2011
</metadata>
<g transform="translate(0.000000,460.000000) scale(0.100000,-0.100000)"
fill="#000000" stroke="none">
<path d="M2838 4351 c-54 -42 -79 -70 -87 -94 -7 -19 -20 -42 -31 -52 -10 -9
-22 -30 -25 -45 -17 -78 -92 34 -102 151 -3 38 -9 69 -13 69 -5 0 -17 -18 -29
-40 -21 -41 -28 -100 -12 -100 5 0 11 -18 15 -39 3 -22 9 -48 13 -58 6 -16 5
-16 -10 -4 -9 7 -20 29 -23 49 -5 27 -9 32 -13 19 -6 -16 -12 -13 -46 18 -49
43 -59 44 -51 5 l6 -30 -28 19 c-81 58 -95 24 -27 -65 26 -33 67 -71 93 -86
26 -15 45 -31 42 -35 -2 -5 -22 -20 -45 -35 -39 -26 -128 -120 -152 -162 -7
-12 -12 -33 -13 -47 0 -22 4 -26 27 -26 19 0 40 12 69 43 22 24 45 44 49 44 4
0 5 -28 2 -62 -7 -80 0 -118 23 -118 28 0 52 -36 61 -90 11 -73 29 -103 67
-114 28 -8 36 -6 57 14 31 29 32 13 4 -43 l-22 -42 22 19 c30 27 45 83 34 126
l-9 34 -70 1 -69 0 -3 31 c-4 37 23 55 33 23 4 -10 11 -19 16 -19 6 0 8 9 4
19 -5 16 0 20 22 24 l28 4 -32 8 c-32 7 -33 9 -33 61 0 59 40 179 71 212 18
20 76 42 112 42 9 0 17 5 17 10 0 21 49 -25 60 -55 26 -75 66 -154 78 -155 8
0 27 -9 42 -20 16 -11 43 -23 62 -27 21 -4 45 -20 66 -45 19 -21 39 -38 46
-38 20 0 52 -41 66 -83 l12 -38 44 41 c24 22 48 40 53 40 20 0 70 -52 81 -84
15 -48 5 -77 -45 -126 -34 -33 -52 -43 -87 -47 -32 -4 -47 -1 -57 11 -19 23
-36 20 -49 -9 -18 -39 -14 -53 7 -26 12 15 24 22 35 18 13 -5 16 -27 15 -154
-1 -148 4 -196 24 -221 33 -41 -197 -142 -321 -142 l-36 0 22 20 c27 25 42 79
42 152 0 31 5 60 10 63 13 8 53 85 47 91 -2 3 -45 -9 -95 -26 -49 -16 -97 -30
-106 -30 -26 0 -139 109 -175 168 -24 41 -35 73 -39 114 -6 67 -22 78 -22 16
0 -66 50 -160 120 -229 90 -88 97 -91 160 -78 36 8 55 8 62 1 14 -14 22 -101
14 -154 -6 -38 -12 -46 -44 -62 -127 -61 -255 -136 -290 -169 -40 -38 -84
-128 -105 -217 -9 -36 -25 -83 -37 -105 -11 -21 -20 -46 -20 -55 0 -9 -4 -20
-10 -26 -13 -13 -57 -137 -70 -198 -8 -40 -7 -62 3 -96 17 -58 6 -176 -22
-230 -11 -21 -40 -57 -64 -79 -31 -29 -63 -77 -107 -163 -34 -68 -79 -140 -98
-160 -20 -21 -32 -41 -28 -45 15 -15 88 83 138 185 37 76 67 122 118 176 71
77 90 121 90 214 l1 37 26 -30 26 -30 -6 -140 c-8 -181 -24 -231 -98 -314
l-56 -63 -27 17 c-35 23 -44 13 -12 -13 44 -34 49 -66 22 -120 -29 -55 -161
-188 -171 -172 -4 6 -4 27 0 46 5 27 14 39 41 51 18 9 34 22 34 30 0 34 -156
-103 -186 -164 -18 -36 -21 -38 -44 -23 -12 7 -10 18 15 72 17 34 45 82 62
105 18 24 29 43 24 43 -26 0 -136 -189 -128 -220 5 -19 -37 -69 -49 -57 -8 8
16 117 34 152 8 17 32 51 54 76 45 54 50 75 8 34 -49 -47 -34 -15 17 37 26 26
44 50 41 54 -10 9 -91 -75 -117 -120 -12 -21 -32 -62 -44 -90 -21 -49 -95
-127 -171 -179 -36 -25 -96 -153 -96 -206 0 -47 -2 -48 -38 -23 -78 53 -305
122 -422 127 -83 4 -83 4 -23 -5 35 -5 95 -18 135 -30 40 -12 89 -26 108 -30
127 -32 229 -88 254 -139 15 -31 20 -91 9 -107 -27 -40 -241 -102 -423 -124
l-65 -7 72 -2 c78 -1 309 46 360 73 46 25 74 54 83 83 8 26 8 24 9 -14 2 -94
-101 -139 -444 -194 -219 -35 -523 -24 -730 27 -33 9 -74 19 -92 23 -48 13
-102 49 -118 81 -13 26 -12 31 20 84 18 31 30 56 25 56 -15 0 -70 -93 -70
-118 0 -40 65 -93 146 -120 148 -49 247 -63 479 -69 192 -4 236 -2 345 16 261
43 406 95 441 156 20 38 51 37 108 -1 37 -24 47 -26 104 -21 34 3 70 9 79 12
12 5 22 -3 37 -33 17 -34 31 -44 104 -75 165 -71 223 -79 572 -81 381 -2 460
4 535 43 30 16 79 32 107 36 62 8 103 36 103 70 0 20 7 25 36 31 20 4 66 4
102 0 178 -18 250 -18 328 -3 43 8 106 16 138 17 33 0 67 5 75 10 47 27 47 27
7 64 -34 32 -49 41 -59 34 -2 -2 -11 3 -19 10 -22 18 -126 52 -160 52 -16 0
-49 5 -73 11 -38 10 -48 18 -77 66 -71 119 -125 153 -210 134 -29 -7 -38 -6
-38 4 0 8 -9 20 -21 28 -18 13 -19 18 -9 37 7 13 10 37 7 55 -4 25 1 42 20 71
27 39 30 77 18 229 -2 37 0 41 46 71 56 38 70 49 115 91 34 31 34 32 34 120 0
49 -7 143 -15 208 -20 158 -20 158 5 150 25 -8 82 23 173 94 89 70 89 83 1
216 -86 131 -108 182 -134 312 -12 59 -30 127 -40 151 -22 50 -114 158 -150
177 -14 7 -64 43 -113 79 -48 36 -96 66 -107 66 -27 0 -35 35 -35 156 0 91 2
104 25 137 14 20 34 40 44 43 26 9 116 94 116 110 0 7 23 37 51 66 61 65 75
89 85 153 7 48 8 49 16 20 4 -16 6 -36 3 -42 -2 -7 0 -13 5 -13 6 0 10 17 11
38 1 33 2 34 9 12 7 -22 8 -21 9 13 1 22 -9 58 -24 87 -14 27 -25 53 -25 57 0
4 24 7 52 5 l53 -3 -33 17 c-18 9 -45 31 -60 48 -15 16 -45 47 -66 68 -44 42
-40 45 27 22 25 -9 54 -14 64 -12 10 2 -9 12 -42 22 -113 34 -192 77 -215 118
-11 21 -34 46 -49 58 -37 26 -198 71 -281 79 -69 6 -69 8 0 42 27 14 30 18 14
19 -23 0 -77 -34 -133 -82 -18 -16 -35 -27 -37 -25 -9 9 37 94 65 121 35 34
36 36 18 60 -12 16 -19 12 -89 -43z m-45 -88 c-3 -10 -10 -24 -16 -30 -5 -7
-15 -30 -23 -50 -9 -27 -13 -31 -14 -16 0 28 17 73 37 95 20 23 24 23 16 1z
m-76 -120 c-4 -3 -7 0 -7 7 0 7 3 10 7 7 3 -4 3 -10 0 -14z m153 -204 c0 -6
-4 -7 -10 -4 -5 3 -10 11 -10 16 0 6 5 7 10 4 6 -3 10 -11 10 -16z m125 -178
c-8 -7 -27 13 -60 65 -52 82 -42 88 14 8 27 -38 48 -71 46 -73z m-434 17 c-6
-17 -11 -46 -11 -64 0 -19 -5 -34 -11 -34 -8 0 -9 14 -5 43 9 57 28 115 34 99
2 -7 -1 -27 -7 -44z m78 -234 c35 -7 39 -19 14 -46 -21 -23 -33 -23 -33 1 0
28 -21 37 -35 17 -12 -15 -13 -15 -19 0 -14 36 2 42 73 28z m686 -604 c17 -15
62 -48 100 -73 129 -84 200 -182 223 -307 l9 -50 -48 0 c-26 0 -67 -8 -91 -19
-50 -21 -150 -104 -178 -147 -31 -46 -23 -61 8 -18 74 101 180 167 258 162
l45 -3 22 -65 c21 -63 92 -194 128 -235 9 -11 27 -40 40 -64 l23 -44 -45 -39
c-77 -68 -151 -112 -188 -111 -20 1 -60 -13 -101 -33 -124 -63 -222 -70 -237
-16 -5 15 -8 116 -8 224 0 193 -7 247 -20 151 -4 -27 -8 -52 -9 -58 -7 -24
-18 153 -13 211 2 35 1 64 -3 64 -13 0 -20 -151 -10 -225 10 -79 29 -243 37
-324 3 -38 12 -60 28 -77 19 -19 24 -38 30 -117 l7 -94 -30 -22 c-17 -11 -33
-21 -36 -21 -16 0 -145 -93 -187 -134 -25 -24 -57 -50 -72 -57 -15 -7 -27 -16
-27 -21 0 -7 -66 -49 -137 -87 -14 -7 -53 -15 -87 -17 -172 -10 -303 -39 -342
-75 l-25 -23 -57 19 c-31 10 -61 22 -65 25 -4 4 4 32 18 64 22 47 33 60 76 81
l50 26 -2 72 c0 40 4 113 10 162 5 50 14 146 20 215 5 69 18 166 28 215 l18
90 5 -100 c7 -124 29 -172 98 -216 55 -35 91 -34 177 6 70 34 88 50 124 120
68 133 79 282 28 388 -22 43 -37 59 -78 82 -43 23 -60 27 -107 23 -89 -7 -173
-73 -203 -159 -12 -37 -18 -46 -19 -29 0 39 21 221 30 257 4 18 5 35 1 38 -10
5 -40 -166 -48 -268 -6 -76 -23 -90 -23 -19 0 17 -4 32 -10 32 -13 0 -13 -23
0 -90 8 -40 6 -66 -4 -109 -8 -31 -18 -84 -22 -118 -3 -35 -9 -63 -13 -63 -3
0 -17 16 -30 36 -42 60 -40 130 4 260 21 60 48 132 61 159 12 28 35 94 51 148
26 91 33 104 83 156 35 35 80 68 123 89 37 19 79 44 94 58 14 13 33 24 42 24
14 -1 14 -2 -1 -14 -71 -53 214 -17 317 41 53 29 106 76 101 89 -8 20 24 5 59
-26z m-526 -621 c24 -16 49 -46 57 -64 20 -48 17 -132 -6 -207 -28 -90 -63
-120 -157 -132 -48 -6 -54 -4 -75 19 -34 39 -46 82 -47 161 -1 87 16 148 59
208 32 43 36 46 80 46 37 0 56 -7 89 -31z m806 -559 c18 -148 21 -281 6 -308
-15 -28 -207 -152 -274 -177 -34 -12 -87 -34 -117 -48 -73 -33 -136 -51 -248
-73 -83 -16 -95 -21 -117 -50 -45 -58 -152 -104 -247 -104 -56 -1 -158 -43
-181 -75 -17 -22 -57 -35 -57 -19 0 16 72 114 97 133 24 17 25 19 6 15 -12 -3
-30 -14 -42 -25 -25 -23 -81 -104 -81 -117 0 -5 -10 -12 -22 -16 -78 -20 -21
110 76 177 48 33 19 31 -33 -2 -46 -30 -64 -54 -90 -123 -5 -15 -19 -32 -31
-38 -19 -10 -20 -8 -20 40 0 47 4 55 48 101 26 28 67 61 92 74 26 14 37 24 27
25 -21 0 -97 -37 -97 -48 0 -4 -19 -23 -43 -42 l-42 -35 33 42 c43 54 74 79
120 94 20 7 48 20 62 30 31 23 197 58 303 64 90 6 176 40 246 99 24 20 53 42
65 48 12 6 39 30 61 52 44 45 79 69 167 115 32 17 62 41 69 53 11 20 9 78 -7
171 l-7 37 44 0 c50 0 119 19 175 48 22 11 40 19 41 19 0 -1 9 -63 18 -137z
m-1212 -321 c8 -31 -1 -46 -36 -59 -17 -5 -42 -20 -56 -33 -21 -19 -23 -19
-18 -4 4 10 7 23 7 29 0 11 80 88 91 88 4 0 9 -9 12 -21z m1038 -266 c1 -100
-1 -113 -20 -132 -22 -22 -24 -28 -21 -78 1 -17 -4 -41 -10 -53 -11 -21 -16
-22 -88 -15 -83 8 -163 39 -222 86 -45 36 -113 65 -173 74 l-47 6 17 30 c10
16 25 29 35 29 43 0 291 72 363 105 74 34 157 65 162 61 2 -1 3 -52 4 -113z
m-22 -318 c2 -2 1 -11 -2 -20 -4 -10 -19 -15 -45 -15 -21 0 -43 -5 -50 -12 -6
-6 -14 -9 -18 -6 -8 9 27 56 46 62 15 4 61 -2 69 -9z m185 -68 c23 -23 57 -69
76 -102 27 -46 41 -60 60 -62 135 -9 210 -32 262 -80 15 -14 33 -23 40 -20 8
2 23 -2 33 -10 17 -12 18 -15 5 -23 -8 -5 -35 -10 -60 -11 -84 -3 -105 -6
-175 -19 -50 -9 -98 -10 -175 -4 -58 4 -144 8 -191 8 l-87 0 -5 49 c-4 27 -18
69 -33 94 l-26 45 25 22 c14 11 30 38 37 58 6 21 24 51 40 68 24 26 35 30 81
30 49 0 55 -3 93 -43z m-220 -9 c-16 -54 -34 -89 -50 -95 -9 -3 -41 2 -72 12
l-56 17 29 22 c57 42 101 64 128 65 25 1 28 -2 21 -21z"/>
<path d="M3285 2880 c-15 -25 -199 -111 -270 -127 l-60 -13 60 5 c65 5 156 40
210 80 17 14 37 25 42 25 13 0 38 29 30 36 -3 3 -8 0 -12 -6z"/>
<path d="M2786 2770 c6 -6 28 -15 48 -20 62 -14 39 3 -34 25 -19 6 -22 4 -14
-5z"/>
<path d="M3470 2239 c0 -14 82 -200 86 -196 5 5 -23 88 -50 150 -25 55 -36 69
-36 46z"/>
<path d="M2450 1435 c28 -29 195 -85 256 -85 37 0 -3 17 -66 30 -97 18 -132
30 -167 56 -41 31 -53 31 -23 -1z"/>
<path d="M2466 1321 c-6 -9 18 -14 119 -26 35 -5 46 -3 35 4 -8 5 -37 13 -65
16 -27 4 -57 9 -67 11 -9 3 -19 1 -22 -5z"/>
<path d="M3110 1116 c0 -10 44 -29 138 -62 52 -18 88 -26 82 -18 -6 7 -25 16
-42 19 -17 4 -53 17 -82 30 -62 27 -96 38 -96 31z"/>
<path d="M3365 650 c-21 -23 -4 -27 19 -4 18 17 20 24 8 24 -5 0 -17 -9 -27
-20z"/>
<path d="M3506 564 c-11 -8 -30 -14 -42 -14 -13 0 -26 -4 -29 -10 -11 -18 52
-11 76 9 28 23 23 36 -5 15z"/>
<path d="M3120 4321 c80 -7 141 -29 177 -63 13 -12 23 -17 23 -11 0 12 -38 47
-70 63 -13 7 -65 14 -115 15 l-90 3 75 -7z"/>
<path d="M1088 3839 c-28 -16 -21 -30 7 -17 14 6 25 15 25 20 0 11 -11 10 -32
-3z"/>
<path d="M1169 3828 c-13 -9 -10 -19 28 -76 55 -81 77 -130 110 -240 81 -271
94 -356 96 -622 1 -153 -1 -172 -27 -260 -15 -52 -31 -99 -36 -105 -17 -21
-58 -125 -50 -125 6 0 24 28 41 62 82 162 98 277 80 580 -13 233 -19 269 -81
456 -46 139 -90 233 -126 273 -13 14 -24 30 -24 37 0 17 79 15 110 -3 24 -14
24 -15 -16 -9 -26 4 -44 2 -48 -5 -5 -7 3 -11 22 -11 16 0 49 -7 72 -15 52
-18 49 -18 46 2 -2 9 -27 29 -56 45 -55 29 -112 36 -141 16z"/>
<path d="M999 3772 c-56 -33 -79 -51 -79 -64 0 -5 13 1 30 15 16 14 52 33 80
42 27 9 50 21 50 26 0 16 -34 8 -81 -19z"/>
<path d="M1124 3765 c27 -25 97 -170 141 -295 43 -119 68 -304 68 -510 1 -166
-2 -196 -25 -293 -14 -59 -36 -126 -48 -148 -25 -49 -21 -62 7 -22 21 29 51
123 75 228 16 75 16 367 0 485 -24 171 -65 306 -140 459 -41 84 -68 121 -90
121 -10 0 -6 -9 12 -25z"/>
<path d="M899 3755 c-30 -15 -51 -35 -59 -54 -10 -25 -19 -31 -56 -37 -24 -3
-46 -10 -49 -14 -3 -5 13 -6 35 -3 l39 6 -20 -54 c-12 -30 -22 -56 -24 -58 -2
-2 -10 19 -19 45 -14 48 -15 49 -15 14 -1 -20 6 -45 14 -57 12 -17 13 -31 5
-65 -12 -54 -13 -135 -1 -142 4 -3 11 28 13 70 3 41 10 80 17 87 6 6 11 25 11
42 1 40 33 111 58 124 35 19 76 13 91 -11 17 -27 17 -159 0 -200 -6 -15 -9
-33 -7 -40 3 -7 13 12 23 42 10 30 24 64 31 75 22 30 16 43 -6 15 l-21 -25 7
27 c3 15 1 50 -6 78 -14 57 -36 75 -81 66 -16 -3 -29 -2 -29 2 0 12 54 62 66
62 6 0 19 7 30 15 29 22 5 17 -47 -10z"/>
<path d="M1055 3758 c-29 -10 -68 -38 -62 -44 1 -2 29 10 62 26 59 29 59 39 0
18z"/>
<path d="M1294 3713 c51 -27 98 -45 91 -33 -9 15 -81 50 -102 50 -13 -1 -9 -5
11 -17z"/>
<path d="M1399 3708 c5 -13 23 -50 40 -83 17 -33 31 -69 31 -80 0 -16 -6 -13
-37 17 -42 39 -73 58 -97 58 -28 0 -17 -17 15 -24 18 -3 49 -22 71 -41 21 -20
43 -33 48 -30 8 5 30 -54 30 -82 0 -7 -17 -2 -42 12 -45 26 -78 32 -78 15 0
-5 6 -10 13 -10 31 0 118 -46 121 -65 15 -72 30 -225 30 -310 1 -55 6 -103 11
-108 13 -10 -30 -43 -80 -61 -40 -14 -40 -14 -9 -15 17 -1 43 8 57 19 14 11
28 20 32 20 4 0 4 -28 0 -62 -6 -54 -13 -95 -41 -226 -2 -12 -12 -30 -22 -40
-55 -56 -101 -116 -96 -124 4 -6 -6 -21 -22 -34 -16 -13 -23 -23 -16 -24 20 0
111 89 137 135 12 22 35 90 51 150 27 106 28 118 27 340 -1 208 -3 236 -23
290 -11 33 -25 80 -30 103 -16 71 -56 176 -90 231 -34 54 -45 65 -31 29z"/>
<path d="M2808 3688 c-21 -6 -38 -14 -38 -19 0 -11 6 -11 53 2 20 5 72 14 115
18 l77 8 -85 1 c-47 0 -102 -5 -122 -10z"/>
<path d="M1065 3650 c-40 -42 -27 -45 17 -4 21 19 32 34 25 34 -7 0 -26 -13
-42 -30z"/>
<path d="M832 3608 c-19 -60 -23 -90 -13 -84 10 7 34 106 27 113 -2 2 -9 -11
-14 -29z"/>
<path d="M872 3603 c-21 -31 -62 -135 -62 -158 0 -32 18 -13 24 26 4 22 20 67
36 100 32 63 33 76 2 32z"/>
<path d="M2856 3586 c-22 -7 -42 -18 -44 -24 -5 -16 17 -15 48 3 15 9 54 14
98 15 41 0 72 4 72 10 0 14 -126 11 -174 -4z"/>
<path d="M3285 3550 c-26 -28 -28 -33 -16 -52 12 -19 11 -24 -9 -40 -27 -22
-21 -35 9 -16 27 17 33 35 19 58 -10 15 -9 23 6 39 11 12 25 21 33 21 7 0 13
5 13 10 0 19 -27 10 -55 -20z"/>
<path d="M2994 3534 c-25 -27 -39 -34 -67 -34 -29 0 -34 3 -30 19 7 26 -17 38
-33 17 -8 -11 -14 -13 -19 -7 -3 6 -12 11 -18 11 -7 -1 4 -14 23 -30 57 -49
136 -34 171 32 17 32 5 29 -27 -8z"/>
<path d="M3309 3521 c9 -6 12 -23 10 -55 -4 -39 -2 -44 8 -29 22 30 9 93 -20
93 -8 0 -8 -3 2 -9z"/>
<path d="M1010 3404 c-25 -30 -46 -62 -48 -72 -2 -10 6 -6 20 13 13 17 38 46
55 66 18 20 33 39 33 43 0 16 -19 1 -60 -50z"/>
<path d="M816 3381 c-4 -7 -5 -15 -2 -18 9 -9 19 4 14 18 -4 11 -6 11 -12 0z"/>
<path d="M850 3384 c0 -3 11 -15 25 -26 68 -53 121 -236 113 -386 -3 -54 -12
-100 -22 -121 -23 -44 -13 -52 13 -10 44 72 40 230 -8 380 -22 67 -42 107 -65
132 -30 33 -56 47 -56 31z"/>
<path d="M2640 3362 c0 -5 7 -15 15 -22 8 -7 15 -8 15 -2 0 5 -7 15 -15 22 -8
7 -15 8 -15 2z"/>
<path d="M1125 3323 c-73 -31 -134 -73 -135 -92 0 -8 18 1 44 22 42 35 134 77
168 77 9 0 20 5 23 10 11 18 -39 10 -100 -17z"/>
<path d="M1415 3330 c7 -11 85 -34 91 -27 5 5 -70 37 -87 37 -6 0 -7 -4 -4
-10z"/>
<path d="M720 3311 c-79 -19 -142 -40 -225 -76 -27 -12 -74 -30 -102 -39 -29
-10 -53 -22 -53 -28 0 -6 7 -7 18 -3 9 5 42 17 72 27 30 10 64 23 75 28 55 27
216 78 263 85 28 4 52 11 52 16 0 12 -10 11 -100 -10z"/>
<path d="M862 3290 c64 -87 91 -193 87 -342 -2 -58 -1 -104 2 -102 14 8 19
144 9 229 -13 102 -58 207 -100 234 l-25 16 27 -35z"/>
<path d="M2700 3280 c0 -5 16 -10 35 -10 19 0 35 5 35 10 0 6 -16 10 -35 10
-19 0 -35 -4 -35 -10z"/>
<path d="M2715 3240 c-4 -6 5 -10 20 -10 15 0 24 4 20 10 -3 6 -12 10 -20 10
-8 0 -17 -4 -20 -10z"/>
<path d="M1100 3200 c-30 -11 -56 -20 -57 -20 -2 0 -3 -4 -3 -10 0 -5 19 0 43
10 24 12 65 20 97 20 39 0 51 3 40 10 -22 14 -58 11 -120 -10z"/>
<path d="M1437 3183 c-9 -2 -15 -8 -13 -12 6 -10 86 -1 86 10 0 9 -41 10 -73
2z"/>
<path d="M312 3157 c-24 -29 -34 -77 -34 -169 0 -83 4 -105 25 -150 14 -29 32
-60 39 -68 20 -25 87 -62 101 -57 6 2 -2 11 -20 20 -78 41 -125 127 -131 242
-3 64 0 91 17 134 21 56 22 71 3 48z"/>
<path d="M370 3116 c0 -7 6 -19 14 -25 7 -6 28 -44 47 -83 29 -63 34 -83 34
-150 0 -51 3 -74 10 -67 18 18 9 140 -14 193 -20 46 -80 146 -88 146 -2 0 -3
-6 -3 -14z"/>
<path d="M1061 3076 c2 -2 40 -6 84 -9 53 -5 75 -4 65 3 -14 9 -159 15 -149 6z"/>
<path d="M1473 3058 c-31 -10 -45 -28 -23 -28 15 0 80 28 80 34 0 8 -19 6 -57
-6z"/>
<path d="M1067 2924 c6 -16 113 -74 135 -74 7 0 2 6 -12 13 -14 8 -48 28 -77
45 -33 20 -50 25 -46 16z"/>
<path d="M575 2872 c-42 -12 -53 -18 -37 -20 23 -3 23 -4 5 -18 -20 -17 -25
-18 102 12 l60 14 -70 -4 -70 -5 53 13 c29 7 55 16 59 20 11 11 -39 5 -102
-12z"/>
<path d="M601 2824 c-42 -13 -77 -34 -55 -34 19 1 144 36 150 43 12 12 -48 6
-95 -9z"/>
<path d="M1038 2813 c26 -37 47 -56 106 -99 37 -29 46 -32 37 -15 -7 12 -29
32 -49 45 -21 13 -50 40 -65 60 -32 42 -58 50 -29 9z"/>
<path d="M850 2799 c-13 -6 -96 -21 -185 -35 -179 -28 -195 -31 -195 -45 0
-11 -4 -12 52 5 75 23 187 31 192 15 3 -8 10 -144 16 -304 6 -159 15 -306 20
-325 11 -41 4 211 -11 385 -13 158 -12 255 4 259 19 5 122 24 123 22 1 0 7
-136 14 -301 14 -364 19 -414 42 -429 23 -14 36 1 15 17 -17 12 -31 172 -40
456 -4 125 -1 127 48 30 44 -85 188 -190 218 -160 5 5 -8 12 -29 16 -28 5 -56
24 -106 72 -37 36 -71 75 -74 87 -4 12 -20 40 -35 63 -24 34 -29 52 -29 100 0
33 5 64 12 71 9 9 8 12 -7 11 -11 0 -31 -5 -45 -10z"/>
<path d="M595 2788 c-66 -17 -72 -20 -56 -25 18 -7 119 15 126 28 7 11 -16 10
-70 -3z"/>
<path d="M1455 2764 c-30 -26 -23 -27 27 -2 16 7 28 16 28 21 0 15 -26 6 -55
-19z"/>
<path d="M970 2756 c-1 -34 137 -177 169 -175 11 0 8 5 -9 17 -32 21 -86 76
-127 127 -18 22 -32 36 -33 31z"/>
<path d="M920 2709 c0 -33 92 -147 155 -192 19 -14 8 3 -30 46 -33 37 -63 67
-67 67 -4 0 -16 20 -27 45 -19 44 -31 57 -31 34z"/>
<path d="M1445 2645 c-45 -28 -41 -32 10 -11 19 8 35 20 35 25 0 14 2 15 -45
-14z"/>
<path d="M1422 2583 c-7 -2 -17 -14 -23 -25 -10 -19 -10 -19 15 -3 14 10 26
21 26 26 0 5 -1 9 -2 8 -2 0 -9 -3 -16 -6z"/>
<path d="M723 2058 c-10 -17 -11 -1350 0 -1334 4 6 7 304 5 662 -2 535 0 654
11 668 8 9 9 16 3 16 -6 0 -14 -6 -19 -12z"/>
<path d="M959 2014 c-8 -151 17 -1171 31 -1229 5 -22 17 -45 26 -52 23 -17 31
-8 12 14 -8 10 -18 29 -21 44 -4 14 -11 205 -16 425 -14 543 -23 798 -27 803
-2 2 -4 0 -5 -5z"/>
<path d="M2390 1756 c0 -8 5 -18 10 -21 6 -3 10 1 10 9 0 8 -4 18 -10 21 -5 3
-10 -1 -10 -9z"/>
<path d="M593 790 c-107 -31 -271 -125 -252 -144 3 -3 27 12 53 34 27 22 52
40 58 40 5 0 28 9 51 19 23 11 74 27 112 37 39 10 74 22 80 26 16 14 -37 7
-102 -12z"/>
<path d="M1149 696 c13 -26 17 -29 19 -14 2 11 -2 26 -8 34 -22 25 -28 15 -11
-20z"/>
<path d="M650 639 c0 -30 144 -54 279 -46 120 7 173 16 166 27 -3 4 -24 3 -47
-2 -24 -6 -99 -11 -168 -11 -104 -1 -134 3 -177 20 -29 12 -53 17 -53 12z"/>
<path d="M271 507 c-2 -26 43 -63 91 -75 23 -6 44 -9 46 -7 2 2 -26 17 -62 34
-35 17 -67 39 -69 49 -4 16 -5 16 -6 -1z"/>
<path d="M563 383 c9 -2 23 -2 30 0 6 3 -1 5 -18 5 -16 0 -22 -2 -12 -5z"/>
<path d="M683 370 c43 -3 151 -3 240 0 157 6 155 7 -78 7 -147 0 -210 -3 -162
-7z"/>
</g>
</svg>
